HIERARCHY
ROOT lpalm
{
OFFSET	0.000000	0.000000	0.000000
CHANNELS	6	Xposition	Yposition	Zposition	Zrotation	Xrotation	Yrotation
JOINT lthumbA
{
OFFSET	-6.570000	-2.200000	3.500000
CHANNELS	3	Zrotation	Xrotation	Yrotation
JOINT lthumbB
{
OFFSET	0.000000	0.000000	7.000000
CHANNELS	3	Zrotation	Xrotation	Yrotation
JOINT lthumbC
{
OFFSET	0.000000	0.000000	3.800000
CHANNELS	3	Zrotation	Xrotation	Yrotation
End Site
{
OFFSET	0.000000	0.000000	3.000000
}
}
}
}
JOINT lindexA
{
OFFSET	-2.730000	0.000000	10.400000
CHANNELS	3	Zrotation	Xrotation	Yrotation
JOINT lindexB
{
OFFSET	0.000000	0.000000	4.600000
CHANNELS	3	Zrotation	Xrotation	Yrotation
JOINT lindexC
{
OFFSET	0.000000	0.000000	3.000000
CHANNELS	3	Zrotation	Xrotation	Yrotation
End Site
{
OFFSET	0.000000	0.000000	2.600000
}
}
}
}
JOINT lmiddleA
{
OFFSET	-0.610000	0.000000	10.000000
CHANNELS	3	Zrotation	Xrotation	Yrotation
JOINT lmiddleB
{
OFFSET	0.000000	0.000000	5.100000
CHANNELS	3	Zrotation	Xrotation	Yrotation
JOINT lmiddleC
{
OFFSET	0.000000	0.000000	3.100000
CHANNELS	3	Zrotation	Xrotation	Yrotation
End Site
{
OFFSET	0.000000	0.000000	2.800000
}
}
}
}
JOINT lringA
{
OFFSET	1.880000	0.000000	9.700000
CHANNELS	3	Zrotation	Xrotation	Yrotation
JOINT lringB
{
OFFSET	0.000000	0.000000	4.800000
CHANNELS	3	Zrotation	Xrotation	Yrotation
JOINT lringC
{
OFFSET	0.000000	0.000000	3.000000
CHANNELS	3	Zrotation	Xrotation	Yrotation
End Site
{
OFFSET	0.000000	0.000000	2.700000
}
}
}
}
JOINT llittleA
{
OFFSET	3.540000	0.000000	8.600000
CHANNELS	3	Zrotation	Xrotation	Yrotation
JOINT llittleB
{
OFFSET	0.000000	0.000000	3.800000
CHANNELS	3	Zrotation	Xrotation	Yrotation
JOINT llittleC
{
OFFSET	0.000000	0.000000	2.300000
CHANNELS	3	Zrotation	Xrotation	Yrotation
End Site
{
OFFSET	0.000000	0.000000	2.400000
}
}
}
}
}
MOTION
Frames: 52
Frame Time: 0.023541
0 0 0 0.02 -1.98 0.7 -17.23 -9.53 -28.76 -14.86 -2.06 7.7 0 0 2.72 0 -21.75 -1.98 0 0.58 0 0 5.25 0 0 -26.65 1.51 0 0 0 0 4.59 0 0 -29.89 3.45 0 2.3 0 0 3.59 0 0 -14.59 3.15 0 6.14 0 0 5.77 0
0 0 0 0.61 7.72 -4.54 46.7 31.32 -29.11 -12.52 -8.33 33.14 0 0 19.73 0 -18.73 -17.29 0 7.95 0 0 8.9 0 0 -10.86 4.63 0 6.12 0 0 6.42 0 0 48.41 4.39 0 68.17 0 0 2.09 0 0 67.6 2.48 0 66.38 0 0 3.45 0
0 0 0 -0.21 21.76 0.54 -1.3 -1.45 -21.29 -14.94 -1.34 5.02 0 0 10.63 0 7.32 -11.77 0 15.77 0 0 0.93 0 0 12.71 1.08 0 15.43 0 0 2.66 0 0 10.31 6.08 0 21.22 0 0 1.45 0 0 13.74 5.83 0 20.33 0 0 0 0
0 0 0 0.7 8.97 -4.43 12.94 5.33 -38.29 -14.69 -3.08 11.58 0 0 35.09 0 37.55 -12.3 0 84.43 0 0 13.43 0 0 0.78 4.02 0 7.28 0 0 7.9 0 0 72.21 -0.67 0 72.64 0 0 1.39 0 0 79.96 -0.67 0 75.4 0 0 8.16 0
0 0 0 -0.16 -10.96 -0.81 30.28 18.1 -28.82 -14.07 -5.26 20.11 0 0 21.67 0 56.09 -8.71 0 42.91 0 0 8.96 0 0 27.41 -7.41 0 14.58 0 0 3.6 0 0 4.83 0.64 0 8.36 0 0 6.63 0 0 9.72 4.29 0 19.26 0 0 5 0
0 0 0 0.02 -2.22 0.51 -18.11 -9.89 -29.38 -14.88 -1.93 7.21 0 0 2.86 0 -22.14 -1.88 0 0.29 0 0 5.37 0 0 -27.71 1.61 0 0 0 0 4.8 0 0 -30.46 3.36 0 1.47 0 0 3.74 0 0 -16.53 2.78 0 4.01 0 0 7.65 0
0 0 0 0.42 -7.5 3.23 -15.12 -5.92 -36.23 -15 0 0 0 0 8.23 0 -5.2 0.11 0 5.19 0 0 4.29 0 0 -5.41 -1.32 0 0.55 0 0 3.58 0 0 -15.3 0.14 0 2.26 0 0 4.59 0 0 -8.17 3.02 0 8.18 0 0 6.66 0
0 0 0 0.73 16.83 -2.43 -6.9 0.2 -78.72 -15 0 0 0 0 4.4 0 75.11 1.26 0 73.81 0 0 15.62 0 180 83.78 -178.74 0 67.23 0 0 4.69 0 0 89.47 1.26 0 68.43 0 0 1.6 0 0 7.16 -4.74 0 23.65 0 0 4.57 0
0 0 0 0.33 4.92 -3.79 -15.55 14.6 -88.8 -15 0 0 0 0 -1.57 0 86.7 2.22 0 62.49 0 0 8.99 0 180 77.66 -177.78 0 65.83 0 0 6.27 0 0 89.55 2.22 0 66.34 0 0 2.57 0 0 1.64 -6.98 0 20.71 0 0 9.33 0
0 0 0 -0.25 -9.09 -1.55 34.7 19.49 -32.43 -14.02 -5.39 20.6 0 0 20.66 0 51.83 -8.06 0 45.72 0 0 9.07 0 0 22.55 -7.5 0 15.3 0 0 3.68 0 0 3.18 0.12 0 8.9 0 0 6.51 0 0 10.52 3.73 0 19.36 0 0 4.29 0
0 0 0 1.02 16.25 -3.5 6.32 2.09 -37.38 -15 0 0 0 0 14.79 0 20.16 -14.01 0 26.19 0 0 4.75 0 0 21.59 -0.57 0 17.69 0 0 2.66 0 0 23.9 2.36 0 26.71 0 0 1.62 0 0 23.65 5.67 0 26.48 0 0 0 0
0 0 0 0.96 16.38 -3.25 8.35 2.9 -37.21 -15 0 0 0 0 15.13 0 21.82 -13.76 0 25.81 0 0 4.62 0 0 21.89 -0.83 0 18.13 0 0 2.44 0 0 24.77 2.36 0 27.06 0 0 1.64 0 0 23.74 5.4 0 26.27 0 0 0 0
0 0 0 0.58 7.46 -4.43 65.2 32.71 -45.59 -11.23 -10.01 41.19 0 0 22.88 0 -26.27 -22.96 0 6.88 0 0 10.61 0 0 -18.56 5.02 0 4.9 0 0 9.07 0 0 52.59 3.54 0 80.52 0 0 2.4 0 0 77.38 2.2 0 80.83 0 0 0 0
0 0 0 0.43 -9.38 2.58 -13.56 -4.3 -40.44 -15 0 0 0 0 9.77 0 -2.8 -2.82 0 9.36 0 0 4.39 0 0 -1.41 -1.48 0 1.84 0 0 3.7 0 0 -13.07 0.46 0 2.85 0 0 4.92 0 0 -4.71 5.7 0 10.11 0 0 6.35 0
0 0 0 0.6 -6.76 5.1 -5.79 -2.46 -29.06 -15 0 0 0 0 7.21 0 -7.19 -0.41 0 5.24 0 0 4.24 0 0 -5.1 -1.13 0 0.57 0 0 3.43 0 0 -13.41 0.49 0 3.02 0 0 4.55 0 0 -3.2 2.7 0 10.96 0 0 3.64 0
0 0 0 0.02 -2.08 0.55 -17.74 -9.75 -29.11 -14.87 -1.99 7.45 0 0 2.79 0 -21.96 -1.92 0 0.43 0 0 5.32 0 0 -27.22 1.59 0 0 0 0 4.69 0 0 -30.21 3.4 0 1.84 0 0 3.69 0 0 -15.68 2.91 0 4.88 0 0 6.79 0
0 0 0 0.96 11.9 -4.56 17.32 7.63 -35.99 -14.91 -1.63 6.1 0 0 11.52 0 18.71 -15.3 0 80.24 0 0 17.34 0 0 -3.09 6.04 0 35.79 0 0 5.91 0 0 36.2 4.91 0 54.97 0 0 1.89 0 0 42.38 4.56 0 57.61 0 0 13.23 0
0 0 0 0.25 -8.33 1.73 -17 -4.77 -44.13 -15 0 0 0 0 10.6 0 3.26 -5.77 0 13.48 0 0 3.42 0 0 9 1.82 0 6.41 0 0 3.3 0 0 3.08 2.7 0 7.17 0 0 4.14 0 0 17.96 5.29 0 12.15 0 0 1.83 0
0 0 0 -0.43 -7.4 -3.29 -25.63 -4.53 -51.79 -15 0 0 0 0 9.71 0 2.32 -2.73 0 13.01 0 0 4.47 0 0 18.05 -0.26 0 8.93 0 0 3.5 0 0 10 -0.26 0 9.28 0 0 4.12 0 0 22.16 3.17 0 13.36 0 0 0.24 0
0 0 0 0.09 2.27 -2.19 41.91 21.36 -37.02 -14 -5.44 20.83 0 0 13.71 0 -37.69 -10.83 0 6.77 0 0 9.63 0 0 -7.75 5.47 0 25.04 0 0 6.09 0 0 41.48 -0.75 0 56.87 0 0 5.57 0 0 64.9 -0.88 0 63.18 0 0 14.13 0
0 0 0 0.54 7.03 -4.39 -13.85 12.28 -87.76 -15 0 0 0 0 -0.65 0 82.95 1.01 0 55.31 0 0 8.94 0 180 82.81 -178.99 0 62.01 0 0 6.8 0 0 83.79 1.01 0 63.34 0 0 2.38 0 0 6.24 -3.67 0 19.5 0 0 7.91 0
0 0 0 -0.33 26.36 0.66 -4.02 -3.38 -23.28 -15 -0.24 0.91 0 0 11.43 0 9.65 -11.88 0 15.91 0 0 0.57 0 0 13.88 0.38 0 17.91 0 0 2.69 0 0 11.89 6.73 0 24.69 0 0 1.09 0 0 12.67 5.46 0 21.71 0 0 0 0
0 0 0 0.16 -4.22 2.11 -0.03 0.14 -20.53 -14.66 -3.23 12.17 0 0 10.36 0 -20.33 -0.65 0 6.74 0 0 7.78 0 0 17.28 -1.41 0 36.54 0 0 6.32 0 0 28.47 1.46 0 36.27 0 0 3.12 0 0 37.46 -1.3 0 31.51 0 0 3.43 0
0 0 0 0.45 -10.01 2.56 -13.2 -3.88 -41.55 -15 0 0 0 0 10.76 0 -0.92 -5.25 0 11.27 0 0 4.06 0 0 3.24 -0.01 0 3.61 0 0 3.7 0 0 -6.32 1.89 0 3.81 0 0 4.91 0 0 6.82 5.6 0 10.5 0 0 4.85 0
0 0 0 0.51 6.78 -4.27 -14.27 12.29 -87.23 -15 0 0 0 0 -0.71 0 83.98 1.1 0 55.87 0 0 8.74 0 180 81.95 -178.9 0 62.88 0 0 6.67 0 0 84.85 1.1 0 64.32 0 0 2.42 0 0 5.27 -3.87 0 19.88 0 0 8.12 0
0 0 0 0.21 4.63 -2.64 0.32 0.16 -27.27 -14.92 -1.58 5.89 0 0 11.89 0 6.41 -3.45 0 8.77 0 0 2.13 0 0 36.94 -2.23 0 30.41 0 0 7.23 0 0 35.84 -1.66 0 30.74 0 0 4.47 0 0 44.22 2.97 0 33.53 0 0 2.07 0
0 0 0 -0.53 -8.91 -3.37 -29.58 6.53 -67.88 -15 0 0 0 0 11.2 0 2.49 6.18 0 7.48 0 0 8.18 0 0 75.46 -3.21 0 80.59 0 0 17.59 0 180 88.63 178.09 0 70.72 0 0 14.36 0 180 81.11 178.09 0 71.32 0 0 15.21 0
0 0 0 -0.1 -5.29 -1.06 -22.59 -5.48 -48.86 -15 0 0 0 0 10.12 0 -2.18 -2.79 0 13.69 0 0 4.94 0 0 10.96 2.03 0 7.68 0 0 3.83 0 0 6.02 1.07 0 7.94 0 0 4.7 0 0 18.51 1.64 0 13.17 0 0 1.12 0
0 0 0 0.56 26.64 -1.12 -12.63 -6.81 -36.18 -15 0 0 0 0 10.75 0 7.84 -13.2 0 25.33 0 0 4.48 0 0 21.29 6.83 0 35.43 0 0 6.82 0 0 29.38 8.63 0 46.16 0 0 4.57 0 0 18.65 6.87 0 31.98 0 0 3.9 0
0 0 0 0.65 9.97 -3.71 26.19 11.59 -36.9 -14.76 -2.69 10.08 0 0 12.19 0 23.83 -14.63 0 82.03 0 0 14.27 0 0 0.4 6.84 0 35.99 0 0 5.81 0 0 53.82 2.18 0 68.24 0 0 1.48 0 0 57.65 0.04 0 79.91 0 0 21.43 0
0 0 0 -0.76 -11.12 -3.87 -32.78 8.68 -67.68 -15 0 0 0 0 12.48 0 1.66 6.38 0 7.36 0 0 9.23 0 0 76.78 -3.67 0 81.17 0 0 17.42 0 180 87.69 177.98 0 70.91 0 0 13.99 0 180 80.76 177.98 0 72.03 0 0 15.7 0
0 0 0 -0.37 -6.06 -3.47 -24.62 -5.26 -50.48 -15 0 0 0 0 9.74 0 5.8 -3.21 0 13.91 0 0 3.94 0 0 27.88 -3.08 0 19.83 0 0 3.55 0 0 22.78 -1.5 0 21.36 0 0 1.95 0 0 25.06 3.81 0 15.28 0 0 0 0
0 0 0 0.59 7.56 -4.48 43.6 29.87 -27.52 -12.74 -7.98 31.53 0 0 18.65 0 -17.85 -15.95 0 8.09 0 0 8.4 0 0 -10.28 4.34 0 6.18 0 0 6.09 0 0 45.99 4.36 0 64 0 0 2.15 0 0 63.47 2.39 0 61.78 0 0 3.99 0
0 0 0 0.94 12.08 -4.41 16.43 7.01 -36.56 -14.93 -1.43 5.33 0 0 11.5 0 18.6 -15.38 0 79.7 0 0 17.85 0 0 -2.22 5.58 0 35.46 0 0 5.96 0 0 33.27 5.12 0 51.13 0 0 2.45 0 0 38.5 5.39 0 52.15 0 0 10.88 0
0 0 0 0.9 16.95 -2.95 9.8 3.46 -36.86 -15 0 0 0 0 15.31 0 23.4 -13.34 0 25.43 0 0 4.39 0 0 21.75 -1.09 0 18.51 0 0 2.28 0 0 24.8 2.4 0 27.36 0 0 1.64 0 0 23.4 5.18 0 26.24 0 0 0 0
0 0 0 0.93 16.43 -3.14 8.91 3.1 -37.21 -15 0 0 0 0 15.24 0 22.55 -13.52 0 25.67 0 0 4.56 0 0 21.6 -0.89 0 18.25 0 0 2.41 0 0 24.86 2.27 0 27.18 0 0 1.64 0 0 23.71 5.28 0 26.31 0 0 0 0
0 0 0 -0.04 -2.43 -0.9 -20.83 -4.31 -52.24 -15 0 0 0 0 8.86 0 34.28 -5.48 0 21.96 0 0 2.57 0 0 60.98 -1.1 0 56.33 0 0 11.01 0 0 60.03 -1.25 0 54.72 0 0 3.54 0 0 8.71 3.75 0 16.87 0 0 3.94 0
0 0 0 0.41 6.61 -3.52 -15.83 5.23 -79.97 -15 0 0 0 0 4.12 0 -21.67 -4.21 0 12.12 0 0 5.68 0 0 -4.92 -0.02 0 8.18 0 0 3.2 0 0 -1.89 2.19 0 10.96 0 0 2.23 0 0 13.09 0.8 0 14.5 0 0 0 0
0 0 0 0.25 -6.01 2.35 31.64 17.31 -30.67 -13.53 -6.53 25.3 0 0 18.08 0 49.83 -5.73 0 46.9 0 0 9.25 0 0 18.5 -5.65 0 10.71 0 0 2.69 0 0 -1.59 1.91 0 5.57 0 0 5.01 0 0 6.42 6.2 0 11.73 0 0 4.93 0
0 0 0 0.13 -4.4 1.63 37.06 16.93 -38.41 -13.73 -6.11 23.53 0 0 17 0 48.28 -6.42 0 46.35 0 0 8.26 0 0 14.56 -6.78 0 9.96 0 0 2.46 0 0 -10.06 2.29 0 4.59 0 0 5.12 0 0 -5.71 7.82 0 11.39 0 0 6.25 0
0 0 0 -0.29 -10.03 -1.66 -26.07 -6.25 -47.11 -14.95 -1.22 4.54 0 0 11.79 0 13.96 11.46 0 6.86 0 0 5.24 0 0 78.13 -2.05 0 79.74 0 0 12.59 0 180 89.34 177.61 0 66.36 0 0 9.42 0 180 88.99 177.61 0 64.49 0 0 14.89 0
0 0 0 0.22 -5.56 2.26 35.31 16.82 -36.54 -13.76 -6.04 23.26 0 0 17.92 0 51.43 -7.06 0 45.23 0 0 9.13 0 0 18.4 -7.52 0 11.5 0 0 2.31 0 0 -6.93 3.13 0 4.94 0 0 4.96 0 0 -2.91 7.18 0 11.92 0 0 5.75 0
0 0 0 0.15 -4.39 1.95 35.66 16.94 -36.69 -13.69 -6.19 23.86 0 0 17.26 0 49.89 -6.13 0 45.39 0 0 9.61 0 0 19.88 -7.88 0 11.92 0 0 2 0 0 -5.12 3.2 0 4.94 0 0 4.69 0 0 1.29 5.68 0 12.51 0 0 4.33 0
0 0 0 -0.4 -12.2 -1.86 12.47 9.21 -17.26 -14.1 -5.18 19.79 0 0 20.05 0 52.09 -6.62 0 42.98 0 0 9.53 0 0 32.74 -8.59 0 14.94 0 0 3.58 0 0 11.71 -1.77 0 9.41 0 0 5.46 0 0 16.5 3.31 0 19.48 0 0 2.61 0
0 0 0 -0.89 25.38 1.87 -4.25 -1.99 -66.99 -15 0 0 0 0 3.93 0 73.89 -1.41 0 64.21 0 0 12.91 0 180 85.67 178.59 0 61.36 0 0 5.48 0 0 86.19 -1.41 0 62.92 0 0 1.99 0 0 0.2 4.27 0 12.73 0 0 10.75 0
0 0 0 0.38 6.12 -3.52 71.87 28.09 -55.54 -11.31 -9.92 40.76 0 0 23.84 0 -32.65 -23.64 0 6.44 0 0 12.07 0 0 -18.99 4.37 0 5.67 0 0 9.3 0 0 53.76 1.87 0 81.88 0 0 1.84 0 0 78.82 1.26 0 79.83 0 0 0 0
0 0 0 0.02 -1.96 0.44 -17.6 -9.6 -29.48 -14.9 -1.75 6.56 0 0 2.63 0 -22.69 -1.62 0 0 0 0 5.59 0 0 -28.5 1.61 0 0 0 0 4.9 0 0 -30.82 3.31 0 0.9 0 0 3.84 0 0 -17.75 2.84 0 2.98 0 0 8.75 0
0 0 0 0.28 6.55 -2.44 31.55 14.32 -37.49 -14.39 -4.29 16.25 0 0 26.35 0 40.65 -12.76 0 80.81 0 0 10.27 0 0 11.52 9.24 0 24.29 0 0 5.61 0 0 76.14 -1.79 0 71.75 0 0 1.37 0 0 81.63 -1.79 0 75.57 0 0 6.91 0
0 0 0 0.93 16.84 -3.06 9.75 3.44 -36.96 -15 0 0 0 0 15.3 0 22.6 -13.51 0 25.53 0 0 4.48 0 0 21.51 -0.96 0 18.26 0 0 2.36 0 0 24.72 2.41 0 27.25 0 0 1.64 0 0 23.46 5.31 0 26.26 0 0 0 0
0 0 0 0.07 -2.65 1.53 37.51 17.9 -36.79 -13.56 -6.48 25.06 0 0 15.38 0 46.68 -5.41 0 45.29 0 0 10.41 0 0 20.2 -7.32 0 11.47 0 0 1.95 0 0 -2.11 3.46 0 5.32 0 0 4.42 0 0 7.04 4.29 0 12.98 0 0 2.56 0
0 0 0 0.4 5.42 -4.18 63.72 30.41 -47 -12.65 -8.12 32.18 0 0 19.51 0 -25.65 -25.08 0 9.62 0 0 11.15 0 0 -11.68 6.89 0 15.96 0 0 7.4 0 0 52.46 3.47 0 75.25 0 0 1.02 0 0 78.02 2.01 0 73.46 0 0 0 0
0 0 0 0.32 7.3 -2.53 30.81 13.86 -37.44 -14.41 -4.21 15.94 0 0 30.01 0 40.84 -12.13 0 81.68 0 0 10.64 0 0 9.29 8.5 0 21.87 0 0 5.89 0 0 75.72 -1.81 0 71.19 0 0 1.33 0 0 81.31 -1.81 0 74.07 0 0 5.71 0
